<svg id="Capa_1" enable-background="new 0 0 512 512" height="512" viewBox="0 0 512 512" width="512" xmlns="http://www.w3.org/2000/svg"><g><g><g><path d="m493.374 40.514h-474.748c-10.282 0-18.626 8.335-18.626 18.626v232.522l18.099 11.309h475.801l18.1-11.309v-232.522c0-10.291-8.345-18.626-18.626-18.626z" fill="#2b3890"/><path d="m493.374 40.514h-18.906c10.281 0 18.626 8.334 18.626 18.626v243.832h.806l18.1-11.31v-232.522c0-10.291-8.345-18.626-18.626-18.626z" fill="#242e7a"/></g><path d="m512 291.662v64.912c0 10.292-8.344 18.636-18.626 18.636h-474.748c-10.282 0-18.626-8.344-18.626-18.636v-64.912z" fill="#dae7ef"/><path d="m493.094 291.662v64.912c0 10.292-8.345 18.636-18.626 18.636h18.906c10.281 0 18.626-8.344 18.626-18.636v-64.912z" fill="#c1d5e4"/><g><path d="m28.845 291.667v-219.076c0-1.786 1.448-3.235 3.235-3.235h447.84c1.787 0 3.235 1.448 3.235 3.235v219.076z" fill="#b1e4f9"/><path d="m462.973 69.357v222.31h20.182v-219.076c0-1.786-1.448-3.235-3.235-3.235h-16.947z" fill="#90d8f9"/></g><g><path d="m265.629 341.717h-19.258c-4.573 0-8.281-3.707-8.281-8.281s3.707-8.281 8.281-8.281h19.258c4.574 0 8.281 3.707 8.281 8.281s-3.707 8.281-8.281 8.281z" fill="#242e7a"/></g><path d="m357.776 471.486h-203.552c-2.383 0-4.04-2.369-3.224-4.608l4.651-12.745c2.159-5.915 8.834-9.971 16.41-9.971h167.877c7.576 0 14.251 4.056 16.41 9.971l4.651 12.745c.817 2.238-.84 4.608-3.223 4.608z" fill="#dae7ef"/><path d="m302.548 375.21h-93.096c8.564 27.063.771 51.421-23.382 68.952h139.86c-24.152-17.531-31.946-41.889-23.382-68.952z" fill="#c1d5e4"/><path d="m209.452 375.21c2.148 6.787 3.266 13.404 3.356 19.787h86.385c.09-6.382 1.208-12.999 3.356-19.787z" fill="#98b9d3"/></g><g><g><path d="m71.128 141.112c-2.164.001-4.316-.904-5.844-2.668l-11.258-12.999c-2.514-2.903-2.514-7.213 0-10.117l11.258-12.999c2.794-3.226 7.673-3.576 10.899-.782 3.225 2.793 3.575 7.673.783 10.899l-6.877 7.941 6.877 7.941c2.793 3.226 2.443 8.106-.783 10.899-1.461 1.265-3.262 1.885-5.055 1.885z" fill="#2b3890"/></g><g><path d="m137.871 141.112c-1.793 0-3.594-.62-5.055-1.886-3.225-2.793-3.575-7.673-.783-10.899l6.877-7.941-6.877-7.941c-2.793-3.226-2.443-8.106.783-10.899 3.225-2.794 8.105-2.444 10.899.782l11.258 12.999c2.514 2.903 2.514 7.213 0 10.117l-11.258 12.999c-1.528 1.766-3.68 2.669-5.844 2.669z" fill="#2b3890"/></g></g><g><path d="m92.703 148.629c-1.306 0-2.63-.331-3.843-1.029-3.699-2.126-4.975-6.849-2.849-10.549l23.578-41.027c2.127-3.7 6.851-4.975 10.549-2.849 3.699 2.126 4.975 6.849 2.849 10.549l-23.578 41.027c-1.429 2.486-4.031 3.878-6.706 3.878z" fill="#2b3890"/></g><g><path d="m92.71 192.399h-27.213c-4.268 0-7.726-3.459-7.726-7.726s3.459-7.726 7.726-7.726h27.213c4.268 0 7.726 3.459 7.726 7.726s-3.458 7.726-7.726 7.726z" fill="#dd5ca2"/></g><g><path d="m168.779 225.89h-103.282c-4.268 0-7.726-3.459-7.726-7.726s3.459-7.726 7.726-7.726h103.283c4.268 0 7.726 3.459 7.726 7.726s-3.459 7.726-7.727 7.726z" fill="#eab14d"/></g><g><path d="m230.707 225.89h-26.348c-4.268 0-7.726-3.459-7.726-7.726s3.459-7.726 7.726-7.726h26.348c4.268 0 7.726 3.459 7.726 7.726s-3.458 7.726-7.726 7.726z" fill="#dd5ca2"/></g><g><path d="m291.978 225.89h-26.348c-4.268 0-7.726-3.459-7.726-7.726s3.459-7.726 7.726-7.726h26.348c4.268 0 7.726 3.459 7.726 7.726s-3.459 7.726-7.726 7.726z" fill="#2b3890"/></g><g><path d="m434.863 225.89h-107.964c-4.268 0-7.726-3.459-7.726-7.726s3.459-7.726 7.726-7.726h107.964c4.268 0 7.726 3.459 7.726 7.726s-3.458 7.726-7.726 7.726z" fill="#2b3890"/></g><g><path d="m92.71 259.382h-27.213c-4.268 0-7.726-3.459-7.726-7.726s3.459-7.726 7.726-7.726h27.213c4.268 0 7.726 3.459 7.726 7.726s-3.458 7.726-7.726 7.726z" fill="#2b3890"/></g><g><path d="m144.352 259.382h-27.214c-4.268 0-7.726-3.459-7.726-7.726s3.459-7.726 7.726-7.726h27.214c4.268 0 7.726 3.459 7.726 7.726s-3.459 7.726-7.726 7.726z" fill="#dd5ca2"/></g><g><path d="m241.204 259.382h-72.425c-4.268 0-7.726-3.459-7.726-7.726s3.459-7.726 7.726-7.726h72.425c4.268 0 7.726 3.459 7.726 7.726s-3.458 7.726-7.726 7.726z" fill="#eab14d"/></g><g><path d="m403.373 259.382h-131.312c-4.268 0-7.726-3.459-7.726-7.726s3.459-7.726 7.726-7.726h131.312c4.268 0 7.726 3.459 7.726 7.726s-3.458 7.726-7.726 7.726z" fill="#eab14d"/></g><g><path d="m213.291 192.399h-89.024c-4.268 0-7.726-3.459-7.726-7.726s3.459-7.726 7.726-7.726h89.024c4.268 0 7.726 3.459 7.726 7.726s-3.458 7.726-7.726 7.726z" fill="#eab14d"/></g></g></svg>