<svg id="Layer_5" enable-background="new 0 0 64 64" viewBox="0 0 64 64" xmlns="http://www.w3.org/2000/svg"><g><g><g><path d="m33.9 28.1c.1-.7.1-1.4.1-2.1 0-6.7-4.1-12.4-10-14.8v-5.2h36c1.1 0 2 .9 2 2v52c0 1.1-.9 2-2 2h-42c1.1 0 2.1-.5 2.8-1.2s1.2-1.7 1.2-2.8v-16.5c6.2-1.6 11-6.9 11.9-13.4z" fill="#e6e9ed"/></g><g><path d="m49 54h6v4h-6z" fill="#fcd770"/></g><g><path d="m37 54h8v4h-8z" fill="#fcd770"/></g><g><path d="m27 54h6v4h-6z" fill="#fcd770"/></g><g><path d="m49 28h4v22h-4z" fill="#5cd6b3"/></g><g><path d="m51 10c3.9 0 7 3.1 7 7s-3.1 7-7 7c-1.7 0-3.2-.6-4.4-1.6-1.6-1.3-2.6-3.2-2.6-5.4 0-3.9 3.1-7 7-7z" fill="#ff826e"/></g><g><path d="m41 26c1.7 0 3 1.3 3 3s-1.3 3-3 3-3-1.3-3-3c0-.1 0-.3 0-.4.2-1.5 1.5-2.6 3-2.6z" fill="#ff826e"/></g><g><path d="m39 36h4v14h-4z" fill="#5cd6b3"/></g><g><path d="m22 41.5c-1.3.3-2.6.5-4 .5s-2.7-.2-4-.5c-6.9-1.8-12-8-12-15.5 0-6.7 4.1-12.4 10-14.8v4.4c-3.6 2.1-6 6-6 10.4 0 .8.1 1.6.2 2.4 1.1 5.5 6 9.6 11.8 9.6s10.6-4.1 11.8-9.6c.2-.8.2-1.6.2-2.4 0-4.4-2.4-8.3-6-10.4v-4.4c5.9 2.4 10 8.1 10 14.8 0 .7 0 1.4-.1 2.1-.9 6.5-5.7 11.8-11.9 13.4z" fill="#fcd770"/></g><g><path d="m29 42h4v8h-4z" fill="#5cd6b3"/></g><path d="m24 15.6v4.4c0 1.1-.9 2-2 2h-8c-1.1 0-2-.9-2-2v-4.4c-3.6 2.1-6 6-6 10.4 0 .8.1 1.6.2 2.4 1.1 5.5 6 9.6 11.8 9.6s10.6-4.1 11.8-9.6c.2-.8.2-1.6.2-2.4 0-4.4-2.4-8.3-6-10.4z" fill="#69d6f4"/><g><path d="m24 15.6v4.4c0 1.1-.9 2-2 2h-8c-1.1 0-2-.9-2-2v-4.4-4.4-7.2c0-1.1.9-2 2-2h8c1.1 0 2 .9 2 2v2 5.2z" fill="#f0d0b4"/></g><g><path d="m22 41.5v16.5c0 1.1-.5 2.1-1.2 2.8s-1.7 1.2-2.8 1.2c-2.2 0-4-1.8-4-4v-16.5c1.3.3 2.6.5 4 .5s2.7-.2 4-.5z" fill="#969faa"/></g></g><g><path d="m60 5h-35v-1c0-1.7-1.3-3-3-3h-8c-1.7 0-3 1.3-3 3v6.5c-6.1 2.8-10 8.8-10 15.5 0 7.6 5.1 14.1 12 16.2v15.8c0 2.8 2.2 5 5 5h42c1.7 0 3-1.3 3-3v-52c0-1.7-1.3-3-3-3zm-46 18h8c1.7 0 3-1.3 3-3v-2.4c2.5 2.1 4 5.2 4 8.4 0 6.1-4.9 11-11 11s-11-4.9-11-11c0-3.3 1.5-6.4 4-8.4v2.4c0 1.7 1.3 3 3 3zm-1-19c0-.6.4-1 1-1h8c.6 0 1 .4 1 1v16c0 .6-.4 1-1 1h-8c-.6 0-1-.4-1-1zm-10 22c0-5.6 3.1-10.7 8-13.2v2.3c-3.7 2.3-6 6.5-6 10.9 0 7.2 5.8 13 13 13s13-5.8 13-13c0-4.4-2.3-8.6-6-10.9v-2.3c4.9 2.6 8 7.6 8 13.2 0 8.3-6.7 15-15 15s-15-6.7-15-15zm12 32v-15.3c1 .2 2 .3 3 .3s2-.1 3-.3v15.3c0 1.7-1.3 3-3 3s-3-1.3-3-3zm46 2c0 .6-.4 1-1 1h-38c.6-.8 1-1.9 1-3v-15.8c6-1.8 10.5-6.9 11.7-13.1l2.4.3c.2 2 1.9 3.5 4 3.5 2.2 0 4-1.8 4-4 0-.9-.3-1.7-.7-2.3l2.5-2.9c1.1.8 2.5 1.3 4.1 1.3 4.4 0 8-3.6 8-8s-3.6-8-8-8-8 3.6-8 8c0 2.1.8 4.1 2.2 5.5l-2.5 2.9c-.5-.2-1.1-.4-1.7-.4-1.7 0-3.1 1-3.7 2.5l-2.4-.3c0-.4.1-.8.1-1.2 0-6.7-3.9-12.7-10-15.5v-3.5h35c.6 0 1 .4 1 1zm-18-31c0 1.1-.9 2-2 2s-2-.9-2-2 .9-2 2-2 2 .9 2 2zm2-12c0-3.3 2.7-6 6-6s6 2.7 6 6-2.7 6-6 6-6-2.7-6-6z"/><path d="m9 27h2v2h-2z"/><path d="m21 27h2v2h-2z"/><path d="m13 27h2v2h-2z"/><path d="m25 27h2v2h-2z"/><path d="m17 27h2v2h-2z"/><path d="m15 5h6v2h-6z"/><path d="m15 9h6v2h-6z"/><path d="m15 13h6v2h-6z"/><path d="m15 17h6v2h-6z"/><path d="m54.3 14.3-4.3 4.3-1.3-1.3-1.4 1.4 2.7 2.7 5.7-5.7z"/><path d="m54 27h-6v22h-4v-14h-6v14h-4v-8h-6v8h-2v2h30v-2h-2zm-4 2h2v20h-2zm-10 8h2v12h-2zm-10 6h2v6h-2z"/><path d="m26 59h8v-6h-8zm2-4h4v2h-4z"/><path d="m36 59h10v-6h-10zm2-4h6v2h-6z"/><path d="m48 59h8v-6h-8zm2-4h4v2h-4z"/></g></g></svg>