<svg id="_x33_0" enable-background="new 0 0 64 64" height="512" viewBox="0 0 64 64" width="512" xmlns="http://www.w3.org/2000/svg"><g><g><g><path d="m30 46v16h-10v-16h5z" fill="#e6e9ed"/></g><g><path d="m30 2v16h-5-5v-16z" fill="#e6e9ed"/></g><g><path d="m40 24h4v8 8h-4-4v-8-8z" fill="#ff826e"/></g><g><path d="m60 6.57v11.43h-10v-6-6h10z" fill="#fcd770"/></g><g><path d="m60 26.57v11.43h-10v-6-6h10z" fill="#fcd770"/></g><g><circle cx="54" cy="54" fill="#fcd770" r="8"/></g><g><path d="m2 14h6v38h-6z" fill="#b4dd7f"/></g><g><path d="m14 32v20h-6v-38h6z" fill="#ff826e"/></g><g><path d="m14 6v4h-12v-4c0-2.21 1.79-4 4-4h4c2.21 0 4 1.79 4 4z" fill="#aab2bd"/></g><g><path d="m14 10v4h-6-6v-4z" fill="#ffeaa7"/></g><g><path d="m11 58-1.55 3.11c-.28.54-.84.89-1.45.89s-1.17-.35-1.45-.89l-1.55-3.11z" fill="#aab2bd"/></g><g><path d="m14 52-3 6h-6l-3-6h6z" fill="#aab2bd"/></g></g><g><path d="m56.293 50.293-2.293 2.293-2.293-2.293-1.414 1.414 2.293 2.293-2.293 2.293 1.414 1.414 2.293-2.293 2.293 2.293 1.414-1.414-2.293-2.293 2.293-2.293z"/><path d="m54 45c-4.625 0-8.442 3.507-8.941 8h-4.059v-12h4v-8h4v6h12v-12.086l1.789-2.3-1.578-1.229-1.256 1.615h-10.955v6h-4v-8h-4v-10h8v6h12v-12.086l1.789-2.3-1.578-1.229-1.256 1.615h-10.955v6h-10v12h-4v8h-9v-12h5v-18h-12v18h5v12h-9v-25c0-2.757-2.243-5-5-5h-4c-2.757 0-5 2.243-5 5v46.236l4.658 9.317c.447.892 1.345 1.447 2.342 1.447s1.895-.555 2.342-1.447l4.658-9.317v-19.236h9v12h-5v18h12v-18h-5v-12h9v8h4v14h6.059c.499 4.493 4.316 8 8.941 8 4.963 0 9-4.037 9-9s-4.037-9-9-9zm-3-18h7.4l-3.494 4.492-1.199-1.199-1.414 1.414 2.801 2.801 3.906-5.022v7.514h-8zm0-20h7.4l-3.494 4.492-1.199-1.199-1.414 1.414 2.801 2.801 3.906-5.022v7.514h-8zm-30-4h8v14h-8zm-17.382 50h8.764l-2 4h-4.764zm9.382-40h-10v-2h10zm-6 2v36h-4v-36zm2 36v-36h4v36zm-3-48h4c1.654 0 3 1.346 3 3v3h-10v-3c0-1.654 1.346-3 3-3zm1.447 57.658-.829-1.658h2.763l-.829 1.657c-.21.424-.894.423-1.105.001zm21.553.342h-8v-14h8zm8-36h6v14h-6zm17 36c-3.859 0-7-3.141-7-7s3.141-7 7-7 7 3.141 7 7-3.141 7-7 7z"/><path d="m39 27h2v2h-2z"/><path d="m39 31h2v2h-2z"/><path d="m39 35h2v2h-2z"/></g></g></svg>