<svg viewBox="0 0 512 512" xmlns="http://www.w3.org/2000/svg"><g id="filled_outlind" data-name="filled outlind"><path d="m372 112h-20.334a96.012 96.012 0 0 0 -178.891-39.88 48.007 48.007 0 0 0 -44.244 40.742 76.017 76.017 0 0 0 -64.531 75.138 76 76 0 0 0 76 76h232a76 76 0 0 0 76-76 76 76 0 0 0 -76-76z" fill="#eaeae8"/><path d="m394.653 264a75.871 75.871 0 0 0 29.347-60 76 76 0 0 0 -76-76h-20.334a96.087 96.087 0 0 0 -119.666-84.975l35.583-16.925a21.674 21.674 0 0 1 9.308-2.1 105.33 105.33 0 0 1 63.195 21.065l3.331 2.5a105.33 105.33 0 0 1 40.249 64.435h22.923a61.347 61.347 0 0 1 43.379 17.968l12.064 12.064a61.347 61.347 0 0 1 17.968 43.379l-8 17.242c0 33.881-32 53.347-53.347 61.347z" fill="#fbfdff"/><path d="m128 456-8 32h48l-8-32z" fill="#a8a8a8"/><path d="m256 128a8 8 0 0 1 -8-8v-24a8 8 0 0 1 16 0v24a8 8 0 0 1 -8 8z" fill="#c3c3c3"/><circle cx="256" cy="80" fill="#027e2a" r="16"/><path d="m144 360a8 8 0 0 1 -8-8v-40a8 8 0 0 1 8-8h56v-40a8 8 0 0 1 16 0v48a8 8 0 0 1 -8 8h-56v32a8 8 0 0 1 -8 8z" fill="#8feaff"/><path d="m392 384a8 8 0 0 1 -8-8v-32a8 8 0 0 1 16 0v32a8 8 0 0 1 -8 8z" fill="#8feaff"/><path d="m368 320h-56a8 8 0 0 1 -8-8v-48a8 8 0 0 1 16 0v40h48a8 8 0 0 1 0 16z" fill="#027e2a"/><circle cx="208" cy="264" fill="#8feaff" r="16"/><circle cx="312" cy="264" fill="#027e2a" r="16"/><path d="m176 224h-8a8 8 0 0 1 0-16h8a8 8 0 0 1 0 16z" fill="#cbcbcb"/><path d="m136 224h-24a8 8 0 0 1 0-16h24a8 8 0 0 1 0 16z" fill="#cbcbcb"/><path d="m208 120h96v96h-96z" fill="#0296e5"/><path d="m208 152h96v32h-96z" fill="#026ca2"/><path d="m72 424v-56a16 16 0 0 1 16-16h112a16 16 0 0 1 16 16v56z" fill="#27c5a7"/><path d="m72 424v-56a16 16 0 0 1 16-16h88a16 16 0 0 1 16 16v56z" fill="#2ad3b3"/><path d="m72 424h144a0 0 0 0 1 0 0v16a16 16 0 0 1 -16 16h-112a16 16 0 0 1 -16-16v-16a0 0 0 0 1 0 0z" fill="#a8a8a8"/><path d="m72 424h120a0 0 0 0 1 0 0v16a16 16 0 0 1 -16 16h-88a16 16 0 0 1 -16-16v-16a0 0 0 0 1 0 0z" fill="#eaeae8"/><path d="m432 344h-64v-48h32l8 8h24z" fill="#fbb540"/><path d="m340 376h104a12 12 0 0 1 12 12v68a0 0 0 0 1 0 0h-128a0 0 0 0 1 0 0v-68a12 12 0 0 1 12-12z" fill="#27c5a7"/><path d="m432 456h-104v-68c0-6.627 1.373-12 8-12h84a12 12 0 0 1 12 12z" fill="#2ad3b3"/><path d="m320 456h144v22a10 10 0 0 1 -10 10h-124a10 10 0 0 1 -10-10z" fill="#cbcbcb"/><path d="m368 432h-8a8 8 0 0 1 0-16h8a8 8 0 0 1 0 16z" fill="#27c5a7"/><path d="m424 432h-24a8 8 0 0 1 0-16h24a8 8 0 0 1 0 16z" fill="#27c5a7"/><path d="m208 224h96a8 8 0 0 0 8-8v-96a8 8 0 0 0 -8-8h-40v-9.376a24 24 0 1 0 -16 0v9.376h-40a8 8 0 0 0 -8 8v96a8 8 0 0 0 8 8zm48-152a8 8 0 1 1 -8 8 8.009 8.009 0 0 1 8-8zm-40 56h80v16h-80zm0 32h80v16h-80zm0 32h80v16h-80z"/><path d="m140 272h45.376a24.119 24.119 0 0 0 14.624 14.624v17.376h-56a8 8 0 0 0 -8 8v32h-48a24.027 24.027 0 0 0 -24 24v72a24.027 24.027 0 0 0 24 24h29.754l-5.515 22.06a8 8 0 0 0 7.761 9.94h48a8 8 0 0 0 7.761-9.94l-5.515-22.06h29.754a24.027 24.027 0 0 0 24-24v-72a24.027 24.027 0 0 0 -24-24h-48v-24h56a8 8 0 0 0 8-8v-25.376a24.119 24.119 0 0 0 14.624-14.624h58.752a24.119 24.119 0 0 0 14.624 14.624v25.376a8 8 0 0 0 8 8h48v24a8 8 0 0 0 8 8h16v16h-44a20.023 20.023 0 0 0 -20 20v60a8 8 0 0 0 -8 8v22a18.021 18.021 0 0 0 18 18h124a18.021 18.021 0 0 0 18-18v-22a8 8 0 0 0 -8-8v-60a20.023 20.023 0 0 0 -20-20h-44v-16h32a8 8 0 0 0 8-8v-40a8 8 0 0 0 -8-8h-20.687l-5.656-5.657a8 8 0 0 0 -5.657-2.343h-32a8 8 0 0 0 -8 8v8h-40v-17.376a24.119 24.119 0 0 0 14.624-14.624h37.376a84 84 0 0 0 0-168h-13.229a104.016 104.016 0 0 0 -190.792-39.413 56.368 56.368 0 0 0 -46.2 41.4 84.007 84.007 0 0 0 18.221 166.013zm-9.754 208 4-16h19.508l4 16zm77.754-40a8.009 8.009 0 0 1 -8 8h-112a8.009 8.009 0 0 1 -8-8v-8h128zm-8-80a8.009 8.009 0 0 1 8 8v48h-128v-48a8.009 8.009 0 0 1 8-8zm256 118a2 2 0 0 1 -2 2h-124a2 2 0 0 1 -2-2v-14h128zm-12-94a4 4 0 0 1 4 4v60h-112v-60a4 4 0 0 1 4-4zm-68-80h20.687l5.656 5.657a8 8 0 0 0 5.657 2.343h16v24h-48zm-168-32a8 8 0 1 1 8-8 8.009 8.009 0 0 1 -8 8zm104 0a8 8 0 1 1 8-8 8.009 8.009 0 0 1 -8 8zm-223.391-128.531a67.986 67.986 0 0 1 41.12-22.7 8 8 0 0 0 6.714-6.73 40.162 40.162 0 0 1 36.863-33.939 8 8 0 0 0 6.4-3.986 88.01 88.01 0 0 1 163.987 36.542 8 8 0 0 0 7.973 7.344h20.334a68 68 0 0 1 0 136h-37.376a24 24 0 0 0 -45.248 0h-58.752a24 24 0 0 0 -45.248 0h-45.376a68 68 0 0 1 -51.391-112.531z"/><path d="m168 224h8a8 8 0 0 0 0-16h-8a8 8 0 0 0 0 16z"/><path d="m112 224h24a8 8 0 0 0 0-16h-24a8 8 0 0 0 0 16z"/><path d="m360 432h8a8 8 0 0 0 0-16h-8a8 8 0 0 0 0 16z"/><path d="m400 432h24a8 8 0 0 0 0-16h-24a8 8 0 0 0 0 16z"/></g></svg>